<?xml version="1.0" encoding="iso-8859-1"?>
<!-- Generator: Adobe Illustrator 19.0.0, SVG Export Plug-In . SVG Version: 6.00 Build 0)  -->
<svg version="1.1" id="Capa_1" xmlns="http://www.w3.org/2000/svg" xmlns:xlink="http://www.w3.org/1999/xlink" x="0px" y="0px"
	 viewBox="0 0 512 512" style="enable-background:new 0 0 512 512;" xml:space="preserve">
<path style="fill:#648093;" d="M511.889,389.949l-15.663-194.824c0-59.68-48.38-108.06-108.06-108.06
	c-24.975,0-47.968,8.475-66.266,22.704c-10.075,7.834-22.452,12.121-35.214,12.121h-61.371c-12.762,0-25.14-4.287-35.214-12.121
	c-18.298-14.229-41.291-22.704-66.266-22.704c-59.68,0-108.06,48.38-108.06,108.06L0.111,389.949
	c-2.136,26.574,27.003,44.167,49.523,29.898l106.046-83.599c10.35-8.16,23.147-12.597,36.326-12.597h127.986
	c13.18,0,25.976,4.437,36.326,12.597l106.046,83.599C484.887,434.115,514.026,416.524,511.889,389.949z"/>
<path style="fill:#586F7F;" d="M462.366,419.846l-0.606-0.483c9.106-6.105,15.202-16.733,14.184-29.416l-15.664-194.823
	c0-53.559-38.965-98.012-90.099-106.565c5.848-0.977,11.861-1.49,17.987-1.49c59.675,0,108.055,48.379,108.055,108.055
	l15.664,194.823C514.024,416.526,484.885,434.112,462.366,419.846z"/>
<circle style="fill:#E1F0F4;" cx="123.572" cy="204.467" r="75.798"/>
<path style="fill:#C3D9DF;" d="M199.367,204.466c0,41.863-33.929,75.802-75.792,75.802c-4.172,0-8.274-0.34-12.262-0.997
	c36.025-5.858,63.53-37.125,63.53-74.804s-27.505-68.936-63.53-74.794c3.988-0.658,8.089-0.997,12.262-0.997
	C165.439,128.675,199.367,162.603,199.367,204.466z"/>
<path style="fill:#648093;" d="M163.171,181.146h-16.275v-16.275c0-6.644-5.436-12.081-12.081-12.081H112.33
	c-6.644,0-12.081,5.436-12.081,12.081v16.275H83.974c-6.644,0-12.081,5.436-12.081,12.081v22.484
	c0,6.644,5.436,12.081,12.081,12.081h16.275v16.275c0,6.644,5.436,12.081,12.081,12.081h22.484c6.644,0,12.081-5.436,12.081-12.081
	v-16.275h16.275c6.644,0,12.081-5.436,12.081-12.081v-22.484C175.251,186.582,169.815,181.146,163.171,181.146z"/>
<g>
	<path style="fill:#586F7F;" d="M146.897,164.875v16.27h-15.767v-16.27c0-6.65-5.426-12.087-12.077-12.087h15.755
		C141.46,152.788,146.897,158.225,146.897,164.875z"/>
	<path style="fill:#586F7F;" d="M131.13,227.787h15.767v16.28c0,6.639-5.437,12.077-12.087,12.077h-15.756
		c6.65,0,12.077-5.437,12.077-12.077L131.13,227.787L131.13,227.787z"/>
	<path style="fill:#586F7F;" d="M175.254,193.222v22.489c0,6.639-5.437,12.077-12.087,12.077h-15.757
		c6.639,0,12.077-5.437,12.077-12.077v-22.489c0-6.639-5.437-12.077-12.077-12.077h15.757
		C169.817,181.145,175.254,186.582,175.254,193.222z"/>
</g>
<circle style="fill:#E1F0F4;" cx="388.424" cy="204.467" r="75.798"/>
<path style="fill:#C3D9DF;" d="M464.224,204.466c0,41.863-33.929,75.802-75.792,75.802c-4.172,0-8.274-0.34-12.262-0.997
	c36.025-5.858,63.53-37.125,63.53-74.804s-27.505-68.936-63.53-74.794c3.988-0.658,8.089-0.997,12.262-0.997
	C430.295,128.675,464.224,162.603,464.224,204.466z"/>
<circle style="fill:#276FD8;" cx="353.129" cy="204.467" r="15.124"/>
<circle style="fill:#EA2E1B;" cx="423.729" cy="204.467" r="15.124"/>
<circle style="fill:#FFD527;" cx="388.424" cy="164.966" r="15.124"/>
<circle style="fill:#1EE292;" cx="388.424" cy="243.968" r="15.124"/>
<path style="fill:#E1F0F4;" d="M265.394,226.053h-18.79c-5.771,0-10.493-4.722-10.493-10.493v-0.598
	c0-5.771,4.722-10.493,10.493-10.493h18.79c5.771,0,10.493,4.722,10.493,10.493v0.598
	C275.888,221.33,271.166,226.053,265.394,226.053z"/>
<path style="fill:#C3D9DF;" d="M275.888,215.259c0,2.971-1.213,5.674-3.176,7.627c-1.953,1.953-4.646,3.166-7.616,3.166h-12.057
	c2.961,0,5.663-1.213,7.616-3.166c1.963-1.953,3.176-4.656,3.176-7.627c0-5.93-4.862-10.792-10.792-10.792h12.057
	C271.026,204.466,275.888,209.328,275.888,215.259z"/>
<g>
	<circle style="fill:#586F7F;" cx="198.729" cy="314.859" r="34.594"/>
	<circle style="fill:#586F7F;" cx="313.267" cy="314.859" r="34.594"/>
</g>
<g>
	<path style="fill:#496270;" d="M347.867,314.865c0,19.107-15.489,34.586-34.597,34.586c-3.967,0-7.78-0.668-11.337-1.901
		c13.536-4.687,23.249-17.545,23.249-32.685c0-15.14-9.713-28.009-23.249-32.695c3.557-1.233,7.369-1.901,11.337-1.901
		C332.378,280.268,347.867,295.757,347.867,314.865z"/>
	<path style="fill:#496270;" d="M233.323,314.865c0,19.107-15.489,34.586-34.597,34.586c-3.967,0-7.78-0.668-11.337-1.901
		c13.536-4.687,23.249-17.545,23.249-32.685c0-15.14-9.713-28.009-23.249-32.695c3.557-1.233,7.369-1.901,11.337-1.901
		C217.833,280.268,233.323,295.757,233.323,314.865z"/>
</g>
<g>
	<path style="fill:#E1F0F4;" d="M112.834,185.66c3.106,2.803,7.867,2.61,10.738-0.397c1.508,1.579,3.537,2.383,5.576,2.383
		c1.84,0,3.688-0.655,5.162-1.986c3.161-2.852,3.411-7.727,0.559-10.887l-5.574-6.176c-1.461-1.621-3.542-2.544-5.723-2.544
		c-2.181,0-4.262,0.924-5.723,2.544l-5.574,6.176C109.423,177.933,109.673,182.807,112.834,185.66z"/>
	<path style="fill:#E1F0F4;" d="M134.31,223.276c-3.107-2.802-7.866-2.609-10.738,0.398c-2.87-3.008-7.631-3.2-10.738-0.398
		c-3.161,2.852-3.411,7.727-0.559,10.888l5.574,6.177c1.462,1.621,3.542,2.545,5.723,2.545c2.181,0,4.262-0.924,5.723-2.545
		l5.574-6.177C137.72,231.003,137.47,226.129,134.31,223.276z"/>
	<path style="fill:#E1F0F4;" d="M153.267,193.173c-3.161-2.852-8.035-2.601-10.887,0.56c-2.802,3.106-2.609,7.866,0.398,10.737
		c-3.008,2.87-3.2,7.631-0.398,10.737c1.522,1.687,3.62,2.545,5.726,2.545c1.84,0,3.688-0.655,5.162-1.985l6.177-5.574
		c1.621-1.462,2.545-3.541,2.545-5.723c0-2.182-0.925-4.262-2.545-5.723L153.267,193.173z"/>
	<path style="fill:#E1F0F4;" d="M104.764,193.731c-2.851-3.161-7.725-3.411-10.887-0.56l-6.177,5.573
		c-1.621,1.461-2.545,3.542-2.545,5.723c0,2.181,0.924,4.262,2.544,5.723l6.177,5.574c1.474,1.33,3.321,1.985,5.162,1.985
		c2.106,0,4.204-0.858,5.726-2.545c2.802-3.106,2.61-7.866-0.398-10.737C107.373,201.599,107.566,196.837,104.764,193.731z"/>
</g>
<g>
</g>
<g>
</g>
<g>
</g>
<g>
</g>
<g>
</g>
<g>
</g>
<g>
</g>
<g>
</g>
<g>
</g>
<g>
</g>
<g>
</g>
<g>
</g>
<g>
</g>
<g>
</g>
<g>
</g>
</svg>
